<!--?xml version="1.0" standalone="no"?-->
              <svg id="sw-js-blob-svg" viewBox="0 0 100 100" xmlns="http://www.w3.org/2000/svg" version="1.1">
                    <defs> 
                        <linearGradient id="sw-gradient" x1="0" x2="1" y1="1" y2="0">
                            <stop id="stop1" stop-color="rgba(248, 117, 55, 1)" offset="0%"></stop>
                            <stop id="stop2" stop-color="rgba(251, 168, 31, 1)" offset="100%"></stop>
                        </linearGradient>
                    </defs>
                <path fill="none" d="M23.2,-39.8C30.2,-36.2,36.1,-30.2,40,-23.2C43.9,-16.2,45.7,-8.1,45.7,0C45.6,8,43.7,16.1,39.6,22.8C35.6,29.5,29.4,34.8,22.4,37.3C15.5,39.7,7.7,39.3,0,39.3C-7.8,39.3,-15.5,39.8,-21.9,37C-28.3,34.3,-33.4,28.3,-36.8,21.5C-40.2,14.8,-42,7.4,-42.6,-0.4C-43.3,-8.2,-42.9,-16.4,-39.6,-23.3C-36.3,-30.1,-30.1,-35.7,-23,-39.3C-15.9,-42.9,-8,-44.5,0.1,-44.6C8.1,-44.8,16.2,-43.5,23.2,-39.8Z" width="100%" height="100%" transform="translate(50 50)" stroke-width="0.2" style="transition: all 0.3s ease 0s;" stroke="url(#sw-gradient)"></path>
              </svg>