<!--?xml version="1.0" standalone="no"?-->
              <svg id="sw-js-blob-svg" viewBox="0 0 100 100" xmlns="http://www.w3.org/2000/svg" version="1.1">
                    <defs> 
                        <linearGradient id="sw-gradient" x1="0" x2="1" y1="1" y2="0">
                            <stop id="stop1" stop-color="rgba(248, 117, 55, 1)" offset="0%"></stop>
                            <stop id="stop2" stop-color="rgba(251, 168, 31, 1)" offset="100%"></stop>
                        </linearGradient>
                    </defs>
                <path fill="url(#sw-gradient)" d="M21.5,-38.2C27.4,-33.8,31.4,-27.1,34.1,-20.4C36.8,-13.6,38.2,-6.8,37.7,-0.3C37.3,6.3,35,12.6,31.6,18.1C28.1,23.6,23.6,28.3,18.2,33.1C12.7,37.8,6.4,42.7,-0.7,43.8C-7.7,45,-15.3,42.4,-21.5,38.1C-27.7,33.7,-32.4,27.6,-36.1,20.9C-39.8,14.3,-42.6,7.1,-42.7,0C-42.7,-7.2,-40.1,-14.4,-36.6,-21.5C-33.2,-28.6,-28.9,-35.7,-22.7,-39.8C-16.4,-44,-8.2,-45.3,-0.2,-44.9C7.8,-44.6,15.6,-42.5,21.5,-38.2Z" width="100%" height="100%" transform="translate(50 50)" stroke-width="0" style="transition: all 0.3s ease 0s;"></path>
              </svg>